<!-- Generated by IcoMoon.io -->
<svg version="1.1" xmlns="http://www.w3.org/2000/svg" width="40" height="32" viewBox="0 0 40 32">
<title>check</title>
<path fill="#f4f4fd" d="M30.552 4.531c0.529-0.506 1.233-0.786 1.964-0.781s1.431 0.296 1.952 0.811 0.824 1.213 0.843 1.947-0.246 1.448-0.74 1.989l-14.99 18.847c-0.258 0.279-0.569 0.503-0.915 0.659s-0.719 0.239-1.098 0.246c-0.379 0.007-0.755-0.063-1.106-0.205s-0.67-0.355-0.938-0.624l-9.94-9.994c-0.277-0.259-0.499-0.572-0.653-0.919s-0.237-0.723-0.244-1.103 0.063-0.758 0.204-1.111c0.142-0.353 0.353-0.673 0.62-0.942s0.586-0.481 0.937-0.624 0.727-0.212 1.105-0.206c0.378 0.007 0.751 0.090 1.097 0.245s0.657 0.378 0.915 0.656l7.867 7.905 13.047-16.713c0.024-0.029 0.048-0.057 0.075-0.083h-0.004z"></path>
</svg>
